<?xml version="1.0" encoding="UTF-8"?>
<svg version="1.1" xmlns="http://www.w3.org/2000/svg" width="48" height="48">
<path d="M0 0 C15.84 0 31.68 0 48 0 C48 15.84 48 31.68 48 48 C32.16 48 16.32 48 0 48 C0 32.16 0 16.32 0 0 Z " fill="#FEFEFD" transform="translate(0,0)"/>
<path d="M0 0 C0.33 0.99 0.66 1.98 1 3 C1.66 3.33 2.32 3.66 3 4 C5.38210489 9.3139263 6.36196676 13.20853178 6 19 C5.01 19 4.02 19 3 19 C3 19.66 3 20.32 3 21 C3.66 21 4.32 21 5 21 C5 21.66 5 22.32 5 23 C4.34 23 3.68 23 3 23 C3 24.32 3 25.64 3 27 C2.01 27 1.02 27 0 27 C0 27.99 0 28.98 0 30 C-0.99 30 -1.98 30 -3 30 C-3 30.99 -3 31.98 -3 33 C-4.32 33 -5.64 33 -7 33 C-7 33.66 -7 34.32 -7 35 C-8.72880982 35.05449838 -10.45812712 35.09301688 -12.1875 35.125 C-13.15042969 35.14820313 -14.11335938 35.17140625 -15.10546875 35.1953125 C-18.1635978 34.98896101 -20.27518604 34.38418613 -23 33 C-23.33 32.34 -23.66 31.68 -24 31 C-24.99 30.67 -25.98 30.34 -27 30 C-28.50382815 22.65485589 -29.23649903 16.4189942 -28 9 C-27.34 9 -26.68 9 -26 9 C-26 7.68 -26 6.36 -26 5 C-25.34 4.67 -24.68 4.34 -24 4 C-23.67 3.01 -23.34 2.02 -23 1 C-21.37200195 -1.11639747 -20.31944718 -1.90239114 -17.75 -2.6875 C-11.16624161 -3.43565436 -5.97164463 -2.98582232 0 0 Z " fill="#FCDEC2" transform="translate(35,7)"/>
<path d="M0 0 C10.96456512 -0.78693051 10.96456512 -0.78693051 15.125 2.375 C15.74375 3.24125 16.3625 4.1075 17 5 C17.66 5.66 18.32 6.32 19 7 C19.57050601 10.05671112 19.52437225 12.93851356 19 16 C16.75 18.9375 16.75 18.9375 14 21 C13.1028125 21.680625 13.1028125 21.680625 12.1875 22.375 C8.67813005 23.37767713 5.43130945 23.08249643 2 22 C-0.9375 19.5 -0.9375 19.5 -3 17 C-3.33 16.67 -3.66 16.34 -4 16 C-4.64912546 9.76839559 -2.80076332 5.51400279 0 0 Z " fill="#F1EFEA" transform="translate(16,12)"/>
<path d="M0 0 C0.33 0.99 0.66 1.98 1 3 C1.66 3.33 2.32 3.66 3 4 C5.38210489 9.3139263 6.36196676 13.20853178 6 19 C5.01 18.67 4.02 18.34 3 18 C3 15.03 3 12.06 3 9 C1.35 9.66 -0.3 10.32 -2 11 C-2.33 10.01 -2.66 9.02 -3 8 C-5.80812063 6.15827075 -8.00891125 5.75727016 -11.328125 5.8046875 C-12.12734375 5.81113281 -12.9265625 5.81757813 -13.75 5.82421875 C-14.575 5.84097656 -15.4 5.85773437 -16.25 5.875 C-17.51070312 5.88853516 -17.51070312 5.88853516 -18.796875 5.90234375 C-20.86470604 5.92584183 -22.93238995 5.96171092 -25 6 C-25.33 6.66 -25.66 7.32 -26 8 C-26 7.01 -26 6.02 -26 5 C-25.34 4.67 -24.68 4.34 -24 4 C-23.67 3.01 -23.34 2.02 -23 1 C-21.37200195 -1.11639747 -20.31944718 -1.90239114 -17.75 -2.6875 C-11.16624161 -3.43565436 -5.97164463 -2.98582232 0 0 Z " fill="#FDDCBC" transform="translate(35,7)"/>
<path d="M0 0 C6.25 -0.48076923 6.25 -0.48076923 9.4375 1.5625 C11.60396028 4.94217804 11.56288002 7.05983987 11 11 C9.4375 13.4375 9.4375 13.4375 7 15 C3.25 15.25 3.25 15.25 0 15 C0 14.34 0 13.68 0 13 C-1.32 12.34 -2.64 11.68 -4 11 C-4 8.69 -4 6.38 -4 4 C-3.34 4 -2.68 4 -2 4 C-1.34 2.68 -0.68 1.36 0 0 Z " fill="#75BA6E" transform="translate(20,16)"/>
<path d="M0 0 C2.44424051 1.72020108 3.82945081 3.1243384 4.41064453 6.10839844 C4.57614362 8.70761608 4.59444136 11.27083999 4.5625 13.875 C4.59827148 15.20337891 4.59827148 15.20337891 4.63476562 16.55859375 C4.62499569 20.92901199 4.46151082 24.03301103 1.65234375 27.5078125 C-3.64417921 32.48451596 -7.77344659 33.24536261 -14.94140625 33.1640625 C-19.15189821 32.82850147 -23.02231065 31.32589645 -27 30 C-27.6875 27.9375 -27.6875 27.9375 -28 26 C-27.34 26.33 -26.68 26.66 -26 27 C-26 27.66 -26 28.32 -26 29 C-20.72 29.66 -15.44 30.32 -10 31 C-10 30.34 -10 29.68 -10 29 C-8.68 29 -7.36 29 -6 29 C-6 28.01 -6 27.02 -6 26 C-5.01 26 -4.02 26 -3 26 C-3 25.01 -3 24.02 -3 23 C-2.01 23 -1.02 23 0 23 C0 21.68 0 20.36 0 19 C0.66 19 1.32 19 2 19 C2 18.34 2 17.68 2 17 C1.34 17 0.68 17 0 17 C0 16.34 0 15.68 0 15 C0.99 15 1.98 15 3 15 C2.48846191 10.65192625 1.67863478 7.02872348 0 3 C0 2.01 0 1.02 0 0 Z " fill="#FEF2E8" transform="translate(38,11)"/>
<path d="M0 0 C-0.42216873 2.5330124 -0.78865426 4.62703693 -2.0625 6.875 C-3.71954616 10.63097129 -3.43138638 14.40387039 -2.375 18.3125 C-0.3515006 20.79588562 1.97056267 21.209712 5 22 C4.67 22.99 4.34 23.98 4 25 C0.7 24.34 -2.6 23.68 -6 23 C-5.67 22.01 -5.34 21.02 -5 20 C-5.99 19.67 -6.98 19.34 -8 19 C-7.67 17.68 -7.34 16.36 -7 15 C-7.99 15 -8.98 15 -10 15 C-10.18230563 5.52010724 -10.18230563 5.52010724 -7.6875 2.3125 C-5.23613783 0.40588498 -3.06423545 0 0 0 Z " fill="#FAA35A" transform="translate(16,12)"/>
<path d="M0 0 C10.96456512 -0.78693051 10.96456512 -0.78693051 15.125 2.375 C15.74375 3.24125 16.3625 4.1075 17 5 C17.66 5.66 18.32 6.32 19 7 C19.1953125 9.1640625 19.1953125 9.1640625 19.125 11.625 C19.10695313 12.44226562 19.08890625 13.25953125 19.0703125 14.1015625 C19.04710938 14.72804688 19.02390625 15.35453125 19 16 C17.68 15.67 16.36 15.34 15 15 C14.855625 13.906875 14.71125 12.81375 14.5625 11.6875 C14.11711896 8.06877013 14.11711896 8.06877013 13 5 C11.56344146 4.91868537 10.1255517 4.86066441 8.6875 4.8125 C7.88699219 4.77769531 7.08648437 4.74289063 6.26171875 4.70703125 C3.52148416 5.06198392 2.70828921 5.89366282 1 8 C1 7.34 1 6.68 1 6 C0.34 6 -0.32 6 -1 6 C-0.67 4.02 -0.34 2.04 0 0 Z " fill="#F3F6F4" transform="translate(16,12)"/>
<path d="M0 0 C1.984375 1.484375 1.984375 1.484375 4 4 C4.2906124 6.89449949 4.38186045 9.37949935 4.25 12.25 C4.23195313 12.99507812 4.21390625 13.74015625 4.1953125 14.5078125 C4.14835649 16.33909701 4.07661652 18.16971649 4 20 C3.34 20.33 2.68 20.66 2 21 C1.54625 22.134375 1.0925 23.26875 0.625 24.4375 C-1 28 -1 28 -2.875 29.4375 C-5.32768847 30.08674107 -7.47352147 30.14035992 -10 30 C-8.68 29.67 -7.36 29.34 -6 29 C-6 28.01 -6 27.02 -6 26 C-5.01 26 -4.02 26 -3 26 C-3 25.01 -3 24.02 -3 23 C-2.01 23 -1.02 23 0 23 C0 21.68 0 20.36 0 19 C0.66 19 1.32 19 2 19 C2 18.34 2 17.68 2 17 C1.34 17 0.68 17 0 17 C0 16.34 0 15.68 0 15 C0.99 15 1.98 15 3 15 C2.48846191 10.65192625 1.67863478 7.02872348 0 3 C0 2.01 0 1.02 0 0 Z " fill="#FCE1C6" transform="translate(38,11)"/>
<path d="M0 0 C0.38063221 2.3260857 0.71269945 4.66055264 1 7 C0 8 0 8 -3.4375 8.1875 C-7 8 -7 8 -9 6 C-9 4.68 -9 3.36 -9 2 C-8.34 2 -7.68 2 -7 2 C-7 1.34 -7 0.68 -7 0 C-4.3333581 -1.33332095 -2.83319697 -0.67102033 0 0 Z " fill="#B5C8DA" transform="translate(27,20)"/>
<path d="M0 0 C1.36125 0.12375 1.36125 0.12375 2.75 0.25 C3.08 0.91 3.41 1.57 3.75 2.25 C4.74 2.25 5.73 2.25 6.75 2.25 C7.08 2.91 7.41 3.57 7.75 4.25 C8.74 4.58 9.73 4.91 10.75 5.25 C11.08 6.24 11.41 7.23 11.75 8.25 C10.76 8.58 9.77 8.91 8.75 9.25 C8.14671875 8.77949219 7.5434375 8.30898437 6.921875 7.82421875 C4.11529872 5.78995573 2.42264705 5.94026261 -1 6.0625 C-1.98484375 6.08957031 -2.9696875 6.11664062 -3.984375 6.14453125 C-4.73203125 6.17933594 -5.4796875 6.21414062 -6.25 6.25 C-6.58 5.59 -6.91 4.93 -7.25 4.25 C-4.83923194 1.28290085 -3.90322061 0.30024774 0 0 Z " fill="#F98321" transform="translate(23.25,6.75)"/>
<path d="M0 0 C0.99 0 1.98 0 3 0 C4.57718226 9.78279267 4.57718226 9.78279267 2 14 C-0.625 16.8125 -0.625 16.8125 -3 19 C-3.33 18.01 -3.66 17.02 -4 16 C-3.52820313 15.39542969 -3.05640625 14.79085938 -2.5703125 14.16796875 C-0.54194063 11.3676046 -0.72015085 9.72373562 -0.875 6.3125 C-0.94532822 4.54257324 -0.99414442 2.77131378 -1 1 C-0.67 0.67 -0.34 0.34 0 0 Z " fill="#F9892F" transform="translate(35,16)"/>
<path d="M0 0 C4 0 4 0 6.5625 2.0625 C12.86723504 9.66051402 12.35902508 16.41270074 12 26 C11.34 26 10.68 26 10 26 C9.92652344 24.33710937 9.92652344 24.33710937 9.8515625 22.640625 C9.77650785 21.17705935 9.70096119 19.71351888 9.625 18.25 C9.5940625 17.52039063 9.563125 16.79078125 9.53125 16.0390625 C9.27341404 10.70526598 9.27341404 10.70526598 7 6 C4.94999129 5.19471111 4.94999129 5.19471111 3 5 C3 4.01 3 3.02 3 2 C2.01 1.67 1.02 1.34 0 1 C0 0.67 0 0.34 0 0 Z " fill="#FEF0E3" transform="translate(32,5)"/>
<path d="M0 0 C0.33 0.99 0.66 1.98 1 3 C0.01 3.33 -0.98 3.66 -2 4 C-2 5.32 -2 6.64 -2 8 C-2.66 8 -3.32 8 -4 8 C-4.12109311 15.07721931 -3.85373239 21.97195301 -3 29 C-3.33 27.68 -3.66 26.36 -4 25 C-4.66 25 -5.32 25 -6 25 C-7.49944026 19.00223894 -7.49944026 12.99776106 -6 7 C-5.34 7 -4.68 7 -4 7 C-4 5.68 -4 4.36 -4 3 C-3.01 2.67 -2.02 2.34 -1 2 C-0.67 1.34 -0.34 0.68 0 0 Z " fill="#FDEAD8" transform="translate(11,8)"/>
<path d="M0 0 C0 0.66 0 1.32 0 2 C-1.093125 2.309375 -2.18625 2.61875 -3.3125 2.9375 C-5.55407994 3.58337897 -7.7869351 4.2623117 -10 5 C-10.33 5.99 -10.66 6.98 -11 8 C-11.969375 8.12375 -12.93875 8.2475 -13.9375 8.375 C-14.948125 8.58125 -15.95875 8.7875 -17 9 C-17.33 9.66 -17.66 10.32 -18 11 C-18 10.01 -18 9.02 -18 8 C-17.34 7.67 -16.68 7.34 -16 7 C-15.67 6.01 -15.34 5.02 -15 4 C-13.37200195 1.88360253 -12.31944718 1.09760886 -9.75 0.3125 C-6.48207037 -0.05885564 -3.28609789 -0.06443329 0 0 Z " fill="#FCE3CA" transform="translate(27,4)"/>
<path d="M0 0 C3.96 0 7.92 0 12 0 C11.67 1.32 11.34 2.64 11 4 C9.906875 4.103125 8.81375 4.20625 7.6875 4.3125 C4.14440371 4.97307727 3.06756277 5.2027092 1 8 C1 7.34 1 6.68 1 6 C0.34 6 -0.32 6 -1 6 C-0.67 4.02 -0.34 2.04 0 0 Z " fill="#EEE9E1" transform="translate(16,12)"/>
<path d="M0 0 C0 0.66 0 1.32 0 2 C-5.61 2 -11.22 2 -17 2 C-17.33 2.99 -17.66 3.98 -18 5 C-18.99 5 -19.98 5 -21 5 C-21.33 5.99 -21.66 6.98 -22 8 C-22.99 7.67 -23.98 7.34 -25 7 C-24.01 6.67 -23.02 6.34 -22 6 C-22 5.01 -22 4.02 -22 3 C-14.49681658 -0.97331699 -8.27163125 -2.28631605 0 0 Z " fill="#FEF5EC" transform="translate(32,3)"/>
<path d="M0 0 C0.66 0 1.32 0 2 0 C2.66 2.31 3.32 4.62 4 7 C6.97 7 9.94 7 13 7 C13 6.34 13 5.68 13 5 C13.66 5 14.32 5 15 5 C14.6875 6.875 14.6875 6.875 14 9 C10.3558226 11.4294516 8.28758728 11.16179575 4 11 C4 10.34 4 9.68 4 9 C2.68 8.34 1.36 7.68 0 7 C0 4.69 0 2.38 0 0 Z " fill="#6FBA55" transform="translate(16,20)"/>
<path d="M0 0 C1.37562854 1.28965176 2.70766393 2.62689293 4 4 C4 4.66 4 5.32 4 6 C5.98 6.66 7.96 7.32 10 8 C9.67 8.99 9.34 9.98 9 11 C5.7 10.34 2.4 9.68 -1 9 C-0.67 7.68 -0.34 6.36 0 5 C-0.3062434 3.66018514 -0.63451555 2.32488113 -1 1 C-0.67 0.67 -0.34 0.34 0 0 Z " fill="#F98B33" transform="translate(11,26)"/>
<path d="M0 0 C1.32 0 2.64 0 4 0 C6.43425238 4.96993194 7.34615998 8.34605369 7 14 C6.01 13.67 5.02 13.34 4 13 C4 10.03 4 7.06 4 4 C2.35 4.66 0.7 5.32 -1 6 C-1.33 5.34 -1.66 4.68 -2 4 C-1.34 3.34 -0.68 2.68 0 2 C0 1.34 0 0.68 0 0 Z " fill="#F9C395" transform="translate(34,12)"/>
<path d="M0 0 C2 2 2 2 2 5 C-2.455 5.495 -2.455 5.495 -7 6 C-7 4.68 -7 3.36 -7 2 C-4.69 1.34 -2.38 0.68 0 0 Z " fill="#F98B33" transform="translate(29,33)"/>
<path d="M0 0 C0.66 0 1.32 0 2 0 C2 0.66 2 1.32 2 2 C1.34 2 0.68 2 0 2 C0 3.32 0 4.64 0 6 C-0.99 6 -1.98 6 -3 6 C-3 6.99 -3 7.98 -3 9 C-3.99 9 -4.98 9 -6 9 C-6 9.66 -6 10.32 -6 11 C-6.66 10.67 -7.32 10.34 -8 10 C-8 8.02 -8 6.04 -8 4 C-6.515 4.99 -6.515 4.99 -5 6 C-4.21625 5.01 -3.4325 4.02 -2.625 3 C-1.75875 2.01 -0.8925 1.02 0 0 Z " fill="#FAC18E" transform="translate(38,28)"/>
<path d="M0 0 C1.32 0 2.64 0 4 0 C2.75023244 3.65316671 2.32901247 4.78065836 -1 7 C-2.32 7 -3.64 7 -5 7 C-5 6.01 -5 5.02 -5 4 C-3.35 3.34 -1.7 2.68 0 2 C0 1.34 0 0.68 0 0 Z " fill="#F5F7F5" transform="translate(30,27)"/>
<path d="M0 0 C1.36125 0.12375 1.36125 0.12375 2.75 0.25 C2.75 0.91 2.75 1.57 2.75 2.25 C1.43 2.58 0.11 2.91 -1.25 3.25 C-1.25 3.91 -1.25 4.57 -1.25 5.25 C-2.9 5.58 -4.55 5.91 -6.25 6.25 C-6.58 5.59 -6.91 4.93 -7.25 4.25 C-4.83923194 1.28290085 -3.90322061 0.30024774 0 0 Z " fill="#F9984A" transform="translate(23.25,6.75)"/>
<path d="M0 0 C1.2065625 0.0309375 1.2065625 0.0309375 2.4375 0.0625 C2.4375 1.0525 2.4375 2.0425 2.4375 3.0625 C0.7875 3.3925 -0.8625 3.7225 -2.5625 4.0625 C-2.5625 4.7225 -2.5625 5.3825 -2.5625 6.0625 C-3.2225 6.0625 -3.8825 6.0625 -4.5625 6.0625 C-3.48963568 0.08511307 -3.48963568 0.08511307 0 0 Z " fill="#7AB97A" transform="translate(22.5625,15.9375)"/>
<path d="M0 0 C0.66 0.33 1.32 0.66 2 1 C1.45773019 4.79588866 -0.20127563 6.47211993 -3 9 C-3.33 8.01 -3.66 7.02 -4 6 C-2.0625 2.8125 -2.0625 2.8125 0 0 Z " fill="#F9811C" transform="translate(35,26)"/>
<path d="M0 0 C0.33 0 0.66 0 1 0 C1 2.97 1 5.94 1 9 C-0.32 8.67 -1.64 8.34 -3 8 C-3 6.35 -3 4.7 -3 3 C-2.01 3 -1.02 3 0 3 C0 2.01 0 1.02 0 0 Z " fill="#EFE8E0" transform="translate(34,19)"/>
<path d="M0 0 C2.475 0.495 2.475 0.495 5 1 C5.625 3.375 5.625 3.375 6 6 C5.34 6.66 4.68 7.32 4 8 C3.01 7.67 2.02 7.34 1 7 C1.99 6.67 2.98 6.34 4 6 C4 5.01 4 4.02 4 3 C2.68 2.67 1.36 2.34 0 2 C0 1.34 0 0.68 0 0 Z " fill="#F5F8FA" transform="translate(22,19)"/>
<path d="M0 0 C-1.75 2 -1.75 2 -4 4 C-5.32 4 -6.64 4 -8 4 C-8.33 4.66 -8.66 5.32 -9 6 C-9 3 -9 3 -7.75 1.375 C-5.09159407 -0.71374751 -3.10126993 -1.55063497 0 0 Z " fill="#FBCBA0" transform="translate(18,9)"/>
<path d="M0 0 C1.11375 0.185625 2.2275 0.37125 3.375 0.5625 C6.82568861 1.31680657 6.82568861 1.31680657 9 0 C9 1.32 9 2.64 9 4 C6.03 3.67 3.06 3.34 0 3 C0 2.01 0 1.02 0 0 Z " fill="#FABE89" transform="translate(13,35)"/>
<path d="M0 0 C0.66 0 1.32 0 2 0 C1.6875 1.875 1.6875 1.875 1 4 C-2 6 -2 6 -6 6 C-6 5.34 -6 4.68 -6 4 C-4.02 3.34 -2.04 2.68 0 2 C0 1.34 0 0.68 0 0 Z " fill="#5CB342" transform="translate(29,25)"/>
<path d="M0 0 C0 0.66 0 1.32 0 2 C0.99 2 1.98 2 3 2 C3 2.99 3 3.98 3 5 C1.68 4.67 0.36 4.34 -1 4 C-1 3.34 -1 2.68 -1 2 C-1.99 2 -2.98 2 -4 2 C-4.33 2.66 -4.66 3.32 -5 4 C-5 3.01 -5 2.02 -5 1 C-2 0 -2 0 0 0 Z " fill="#FBC08D" transform="translate(31,7)"/>
<path d="M0 0 C0.33 1.32 0.66 2.64 1 4 C1.99 4.33 2.98 4.66 4 5 C3.67 6.65 3.34 8.3 3 10 C2.01 10 1.02 10 0 10 C0 6.7 0 3.4 0 0 Z " fill="#F9B47F" transform="translate(8,21)"/>
<path d="M0 0 C0.99 0.33 1.98 0.66 3 1 C2.67 2.65 2.34 4.3 2 6 C1.01 6 0.02 6 -1 6 C-1.042721 4.33388095 -1.04063832 2.66617115 -1 1 C-0.67 0.67 -0.34 0.34 0 0 Z " fill="#F7F8F7" transform="translate(14,17)"/>
<path d="M0 0 C0.99 0.33 1.98 0.66 3 1 C3 3.31 3 5.62 3 8 C2.01 7.67 1.02 7.34 0 7 C0 4.69 0 2.38 0 0 Z " fill="#FBCB9E" transform="translate(38,18)"/>
<path d="M0 0 C2 1.75 2 1.75 4 4 C4 5.32 4 6.64 4 8 C3.01 7.67 2.02 7.34 1 7 C0.67 4.69 0.34 2.38 0 0 Z " fill="#FDE6D0" transform="translate(38,11)"/>
</svg>
